# xmcd
#
# Track frame offsets: 
#        150
#        21932
#        35335
#        46937
#        63620
#        90010
#        99532
#        109552
#        130695
#        169802
#        205422
#        220575
#        241160
#        312155
#
# Disc length: 4628 seconds
#
# Revision: 10
# Processed by: cddbd v1.5.2PL0 Copyright (c) Steve Scherf et al.
# Submitted via: ExactAudioCopy v1.0b3
#
DISCID=af12120e
DTITLE=The Who - Live At Leeds
DYEAR=1970
DGENRE=Hard Rock
TTITLE0=Heaven And Hell
TTITLE1=I Can't Explain
TTITLE2=Fortune Teller
TTITLE3=Tattoo
TTITLE4=Young Man Blues
TTITLE5=Substitute
TTITLE6=Happy Jack
TTITLE7=I'm A Boy
TTITLE8=A Quick One, While He's Away
TTITLE9=Amazing Journey - Sparks
TTITLE10=Summertime Blues
TTITLE11=Shakin' All Over
TTITLE12=My Generation
TTITLE13=Magic Bus
EXTD=
EXTT0=
EXTT1=
EXTT2=
EXTT3=
EXTT4=
EXTT5=
EXTT6=
EXTT7=
EXTT8=
EXTT9=
EXTT10=
EXTT11=
EXTT12=
EXTT13=
PLAYORDER=
